<?xml version="1.0" encoding="utf-8"?>
<!-- Generator: Adobe Illustrator 22.1.0, SVG Export Plug-In . SVG Version: 6.00 Build 0)  -->
<svg version="1.1" id="Layer_1" xmlns="http://www.w3.org/2000/svg" xmlns:xlink="http://www.w3.org/1999/xlink" x="0px" y="0px"
	 viewBox="0 0 122 118" style="enable-background:new 0 0 122 118;" xml:space="preserve">
<style type="text/css">
	.st0{fill:#29ABE2;}
	.st1{fill:#E90E8B;}
	.st2{fill:#FCEE1F;}
	.st3{fill:#231F20;}
	.st4{fill:#FFFFFF;}
</style>
<title>logo</title>
<rect x="57.9" y="24.7" class="st0" width="10.7" height="10.7"/>
<rect x="47.3" y="35.3" class="st1" width="10.7" height="10.7"/>
<rect x="47.3" y="14" class="st2" width="10.7" height="10.7"/>
<rect x="59.2" y="25.9" class="st3" width="10.7" height="10.7"/>
<rect x="48.5" y="36.6" class="st3" width="10.7" height="10.7"/>
<rect x="48.5" y="15.2" class="st3" width="10.7" height="10.7"/>
<polygon class="st3" points="91.2,68.6 101.9,68.6 101.9,58 91.2,58 80.6,58 69.9,58 59.2,58 48.5,58 37.9,58 27.2,58 27.2,68.6 
	27.2,79.3 27.2,90 37.9,90 37.9,100.7 48.5,100.7 48.5,111.3 59.2,111.3 69.9,111.3 69.9,100.7 80.6,100.7 80.6,90 91.2,90 
	91.2,79.3 "/>
<polygon class="st3" points="101.9,68.6 101.9,79.3 101.9,90 112.6,90 112.6,79.3 112.6,68.6 "/>
<rect x="91.2" y="90" class="st3" width="10.7" height="10.7"/>
<rect x="16.5" y="58" class="st3" width="10.7" height="10.7"/>
<path class="st4" d="M152.9,90.1h-15.6c-3.2,0-5.9-2.6-5.9-5.9V72.5c0-3.2,2.6-5.9,5.9-5.9h15.6v3.8h-15.6c-1.2,0-2.1,0.9-2.1,2.1
	v11.7c0,1.2,0.9,2.1,2.1,2.1h15.6V90.1z"/>
<path class="st4" d="M370.8,90h-11.7c-3.2,0-5.9-2.6-5.9-5.9V66.6h3.7v17.5c0,1.2,0.9,2.1,2.1,2.1h11.7c1.2,0,2.1-0.9,2.1-2.1V66.6
	h3.8v17.5C376.7,87.4,374.1,90,370.8,90z"/>
<path class="st4" d="M324.3,90.1h-15.6c-3.2,0-5.9-2.6-5.9-5.9V72.5c0-3.2,2.6-5.9,5.9-5.9h15.6v3.8h-15.6c-1.2,0-2.1,0.9-2.1,2.1
	v11.7c0,1.2,0.9,2.1,2.1,2.1h15.6V90.1z"/>
<polygon class="st4" points="349.5,90.1 344,90.1 328.9,79.9 331,76.8 345.2,86.3 349.5,86.3 "/>
<rect x="328.1" y="66.6" class="st4" width="3.8" height="23.9"/>
<polygon class="st4" points="331,79.9 328.9,76.8 344.8,66.6 349.5,66.6 349.5,70.4 346,70.4 "/>
<path class="st4" d="M293.3,90.1h-11.6c-3.2,0-5.9-2.6-5.9-5.9V72.5c0-3.2,2.6-5.9,5.9-5.9h11.6c3.2,0,5.9,2.6,5.9,5.9v11.7
	C299.1,87.4,296.5,90.1,293.3,90.1z M281.7,70.4c-1.2,0-2.1,0.9-2.1,2.1c0,0,0,0,0,0v11.7c0,1.2,0.9,2.1,2.1,2.1c0,0,0,0,0,0h11.6
	c1.2,0,2.1-1,2.1-2.1V72.5c0-1.2-0.9-2.1-2.1-2.1H281.7z"/>
<polygon class="st4" points="272,90.1 268.3,90.1 268.3,70.4 266.2,70.4 260.4,78.9 254.6,70.4 252.5,70.4 252.5,90.1 248.7,90.1 
	248.7,66.6 256.6,66.6 260.4,72.2 264.2,66.6 272,66.6 "/>
<path class="st4" d="M235,90.1h-23.4V72.5c0-3.2,2.6-5.9,5.9-5.9h11.6c3.2,0,5.9,2.6,5.9,5.9v8.7h-19.6v5.1H235V90.1z M215.4,77.5
	h15.8v-5c0-1.2-0.9-2.1-2.1-2.1h-11.6c-1.2,0-2.1,0.9-2.1,2.1c0,0,0,0,0,0L215.4,77.5z"/>
<path class="st4" d="M190.2,90.1h-3.8V72.5c0-3.2,2.6-5.9,5.9-5.9h15.6v3.8h-15.6c-1.2,0-2.1,0.9-2.1,2.1c0,0,0,0,0,0V90.1z"/>
<path class="st4" d="M182.5,90.1h-2.6l-1.7-1.8l-1.4,1.8h-20.1V72.5c0-3.2,2.6-5.9,5.9-5.9h17.5v18.1l1.5,1.6h1L182.5,90.1z
	 M160.4,86.3h14.6l1.3-1.6V70.4h-13.7c-1.2,0-2.1,0.9-2.1,2.1V86.3z"/>
<rect x="188.3" y="77.5" class="st4" width="14" height="3.8"/>
<path class="st4" d="M384.2,90h-3.8V66.6h17.5c3.2,0,5.9,2.6,5.9,5.9v2.9c0,3.2-2.6,5.9-5.9,5.9h-13.7V90z M384.2,77.5h13.7
	c1.2,0,2.1-0.9,2.1-2.1c0,0,0,0,0,0v-2.9c0-1.2-0.9-2.1-2.1-2.1c0,0,0,0,0,0h-13.7V77.5z"/>
</svg>
